<svg width="35" height="35" viewBox="0 0 35 35" fill="none" xmlns="http://www.w3.org/2000/svg">
<path d="M27.9808 33.4747C28 29.7489 24.1553 27.5439 20.426 25.9374C16.7108 24.3379 15.5243 22.9904 15.5243 20.1029C15.5243 18.3722 16.6583 18.9357 17.1553 15.7612C17.3653 14.4452 18.3662 15.7402 18.5588 12.7354C18.5588 11.5384 18.011 11.2409 18.011 11.2409C18.011 11.2409 18.2892 9.46816 18.3977 8.10316C18.5097 6.67341 17.7013 3.62316 14.371 2.68691C13.79 2.09016 13.3962 1.14341 15.1882 0.194915C11.2682 0.0129145 10.3565 2.06391 8.26875 3.57241C6.4925 4.89541 6.013 6.99016 6.09875 8.10491C6.2125 9.46991 6.489 11.2427 6.489 11.2427C6.489 11.2427 5.9395 11.5402 5.9395 12.7372C6.132 15.7437 7.1365 14.4469 7.34475 15.7629C7.84175 18.9374 8.9775 18.3739 8.9775 20.1047C8.9775 22.9922 8.6065 23.9722 4.8895 25.5717C1.16025 27.1764 0 29.7489 0.01925 33.4747C0.0245 34.5894 0 34.9989 0 34.9989H28C28 34.9989 27.9755 34.5894 27.9808 33.4747ZM29.75 17.4989V12.2489H26.25V17.4989H21V20.9989H26.25V26.2489H29.75V20.9989H35V17.4989H29.75Z" fill="#50C878"/>
</svg>
