<svg width="48" height="41" viewBox="0 0 48 41" fill="none" xmlns="http://www.w3.org/2000/svg">
<g clip-path="url(#clip0_163:40)">
<path d="M24.0875 0.00769043C26.3607 3.94542 28.548 7.73254 30.9243 11.8525C28.6511 10.8565 26.6235 10.6208 24.6203 11.1091C18.218 12.6687 14.7223 17.1335 12.7608 23.0413C12.5153 23.7701 12.4367 24.528 12.2477 25.4244C13.2051 23.9669 13.9906 22.6089 14.948 21.3725C16.5412 19.3174 18.5444 17.7287 21.0386 16.8469C26.4393 14.9229 31.8228 18.2558 32.3555 23.928C32.4808 25.4146 32.4214 26.9108 32.1787 28.3832C31.9504 29.8407 31.4103 31.2423 31.0225 32.6197C33.578 30.9047 35.1958 27.1637 36.1212 20.6194C40.1276 27.4916 44.0259 34.1743 48.0004 40.9882H27.8557C30.4505 39.4821 32.4562 37.6627 33.9291 35.3136C35.3775 33.001 36.3471 30.5305 36.5361 27.7831C35.1442 30.4334 33.4258 32.8091 30.9709 34.5849C28.3197 36.4942 25.4328 37.5752 22.1334 36.6205C18.1835 35.4788 15.6772 31.4075 16.2737 26.9572C16.5462 24.9385 17.1255 22.9587 17.5207 21.1636C15.6206 22.2397 13.3058 26.9936 12.9965 30.7565C12.6749 34.6942 13.5218 38.2068 16.7696 41.0198H0.0102539C8.04012 27.3191 16.0232 13.7278 24.0875 0.00769043Z" fill="#FFFEFE"/>
</g>
<defs>
<clipPath id="clip0_163:40">
<rect width="48" height="41" fill="white"/>
</clipPath>
</defs>
</svg>
