<svg width="16" height="16" viewBox="0 0 16 16" fill="none" xmlns="http://www.w3.org/2000/svg">
<path d="M1 6.94922C0.447715 6.94922 -4.82823e-08 7.39693 0 7.94922C4.82823e-08 8.5015 0.447715 8.94922 1 8.94922L1 6.94922ZM15.7071 8.65632C16.0976 8.2658 16.0976 7.63263 15.7071 7.24211L9.34314 0.87815C8.95262 0.487626 8.31946 0.487626 7.92893 0.87815C7.53841 1.26867 7.53841 1.90184 7.92893 2.29236L13.5858 7.94922L7.92893 13.6061C7.53841 13.9966 7.53841 14.6298 7.92893 15.0203C8.31946 15.4108 8.95262 15.4108 9.34315 15.0203L15.7071 8.65632ZM1 8.94922L15 8.94922L15 6.94922L1 6.94922L1 8.94922Z" fill="white"/>
</svg>
