<svg width="40" height="40" viewBox="0 0 40 40" fill="none" xmlns="http://www.w3.org/2000/svg">
<path d="M26.043 19.7452L16.4336 12.792C16.3869 12.7581 16.3317 12.7378 16.2742 12.7334C16.2166 12.7289 16.159 12.7404 16.1076 12.7667C16.0563 12.793 16.0132 12.833 15.9831 12.8823C15.9531 12.9316 15.9373 12.9882 15.9375 13.0459V14.878C15.9375 15.2764 16.1289 15.6553 16.4531 15.8897L22.1328 19.9991L16.4531 24.1084C16.1289 24.3428 15.9375 24.7178 15.9375 25.1202V26.9522C15.9375 27.2061 16.2266 27.3545 16.4336 27.2061L26.043 20.253C26.2148 20.128 26.2148 19.8702 26.043 19.7452Z" fill="#0FA958"/>
<path d="M20 2.5C10.3359 2.5 2.5 10.3359 2.5 20C2.5 29.6641 10.3359 37.5 20 37.5C29.6641 37.5 37.5 29.6641 37.5 20C37.5 10.3359 29.6641 2.5 20 2.5ZM20 34.5312C11.9766 34.5312 5.46875 28.0234 5.46875 20C5.46875 11.9766 11.9766 5.46875 20 5.46875C28.0234 5.46875 34.5312 11.9766 34.5312 20C34.5312 28.0234 28.0234 34.5312 20 34.5312Z" fill="#0FA958"/>
</svg>
