<svg width="128" height="117" viewBox="0 0 128 117" fill="none" xmlns="http://www.w3.org/2000/svg">
<path d="M60.9999 97.3833C60.9965 89.7761 62.8093 82.2919 66.2692 75.6283C69.7292 68.9647 74.7237 63.3386 80.7871 59.2745C86.8506 55.2104 93.7856 52.8407 100.946 52.3861C108.106 51.9316 115.258 53.4071 121.735 56.675V0.765625H0.264648V103.824H61.4858C61.1822 101.699 60.9999 99.5733 60.9999 97.3833ZM12.4117 13.648L60.9999 45.8539L109.588 13.648V26.5303L60.9999 58.7362L12.4117 26.5303V13.648ZM93.4326 116.707L71.9323 93.905L80.496 84.823L93.3719 98.4783L119.124 71.1677L127.809 80.2497L93.4326 116.707Z" fill="#0FA958"/>
</svg>
